<svg width="16" height="16" viewBox="0 0 16 16" fill="none" xmlns="http://www.w3.org/2000/svg">
<path d="M1.827 6.556L6.9405 2.556L7.027 2.543C7.32405 2.50026 7.62389 2.47987 7.924 2.482C9.01747 2.49133 10.1014 2.68644 11.1295 3.059C12.22 3.4095 13.1712 4.09677 13.8465 5.022L13.901 5.105V7.76C13.9084 7.92223 13.8781 8.08396 13.8125 8.2325C13.7644 8.33134 13.69 8.41505 13.5975 8.4745V12.2935L1.827 14.0895V6.556Z" fill="#4A1700"/>
<path d="M1.8195 14.1V6.5525H1.8225L6.9375 2.5525L7.0255 2.539C7.32353 2.49594 7.62438 2.47539 7.9255 2.4775C9.01984 2.4867 10.1046 2.68199 11.1335 3.055C12.224 3.40657 13.175 4.09468 13.85 5.0205L13.906 5.1055V7.7625C13.9137 7.92597 13.883 8.08898 13.8165 8.2385C13.7687 8.3374 13.6947 8.42128 13.6025 8.481V12.3H13.5965L1.8195 14.1ZM1.834 6.5615V14.081L13.59 12.29V8.473H13.5935C13.6853 8.41482 13.759 8.33201 13.806 8.234C13.8719 8.08661 13.9021 7.92575 13.894 7.7645V5.1095L13.8405 5.028C13.1664 4.10374 12.2163 3.41742 11.127 3.068C10.0999 2.69494 9.0167 2.49997 7.924 2.4915C7.6244 2.48945 7.32506 2.50984 7.0285 2.5525L6.944 2.5655L1.834 6.5615Z" fill="black"/>
<path d="M2.1525 8.718L13.214 7.0325V11.992L2.1525 13.677V8.718Z" fill="#995700"/>
<path d="M13.185 7.058V11.9735L2.1665 13.65V8.7365L13.185 7.058ZM13.2285 7.008L2.1235 8.7V13.7L13.2285 12.008V7.008Z" fill="#995700"/>
<path d="M8.2145 7.827L8.3845 7.791V5.771C7.86761 5.68632 7.36101 5.54773 6.873 5.3575L8.2145 7.827Z" fill="#4A1700"/>
<path d="M6.5 5.4245C5.509 4.882 5.453 4.7695 5.4125 4.687L5.2235 4.316L2.1465 6.716L8.2165 5.915C7.63249 5.79622 7.05859 5.63223 6.5 5.4245Z" fill="white"/>
<path d="M2.719 6.644L6.2315 6.179C6.2315 6.179 4.972 6.434 4.0005 6.5535C3.542 6.61 2.719 6.644 2.719 6.644ZM12.219 5.386L13.569 5.2075L13.628 5.2885C13.1592 5.33243 12.6894 5.36494 12.219 5.386Z" fill="#4A1700"/>
<path d="M12.8315 4.3935C12.8315 5.2 11.265 6.766 8.9155 6.766C6.753 6.766 5 5.722 5 4.3935C5 2.231 6.7525 1 8.9155 1C11.079 1.0005 12.8315 2.231 12.8315 4.3935Z" fill="#F4ABBA"/>
<path d="M13.2285 7.0075V8.239C13.489 8.229 13.532 8.0045 13.532 7.7625V5.207L10.113 5.6615C10.313 6.058 10.616 6.6585 10.973 7.3535L13.2285 7.0075Z" fill="#FFE05C"/>
<path d="M8 5.21018C8 7.33445 6.80015 6.9774 5 6.9774C3.34312 6.9774 2 6.29978 2 5.21018C2 4.35879 2.31607 3.54227 2.87868 2.94024C3.44129 2.33821 4.20435 2 5 2C5.79565 2 6.55871 2.33821 7.12132 2.94024C7.68393 3.54227 8 4.35879 8 5.21018Z" fill="#8A4B38"/>
<path d="M12 4.20754C12 4.86822 10.8002 5.93727 9.00038 5.93727C7.34312 5.93727 6 6.50783 6 4.20754C6 3.35685 6.31607 2.541 6.87868 1.93947C7.44129 1.33794 8.20435 1 9 1C9.79565 1 10.5587 1.33794 11.1213 1.93947C11.6839 2.541 12 3.35685 12 4.20754Z" fill="#FFE8B6"/>
<path d="M10.973 7.347L11 5.5L2.138 6.718V8.7065L10.973 7.347Z" fill="#FFE05C"/>
</svg>
