<svg width="16" height="16" viewBox="0 0 16 16" fill="none" xmlns="http://www.w3.org/2000/svg">
<g clip-path="url(#clip0_1_76)">
<path d="M4.1 15.475C2.575 15.475 1.1 15.475 0.525 7.775C-0.25 -2.725 13.55 1.1 13.55 7.15C13.55 10.475 4.1 15.475 4.1 15.475Z" fill="#D3976E"/>
<path opacity="0.5" d="M0.899998 7.775C0.574998 3.275 2.9 1.425 5.7 1.225V1.2C2.75 1.25 0.174998 3.075 0.524998 7.775C1.05 14.9 2.375 15.475 3.75 15.475C2.475 15.25 1.375 14.275 0.899998 7.775Z" fill="white"/>
<path d="M4.825 6.375L1.075 8.025L0.550003 9.25L1.225 9.65L0.750003 10.725L1.125 10.95L0.600003 12.075L1.425 12.575L0.950003 13.65L1.925 14.25L1.75 14.65L2.875 15.325L3.1 14.825L3.65 15.45L4.55 15.225L7.475 9.6L4.825 6.375Z" fill="#594640"/>
<path d="M5.75 9.75L6.5 8.75L0.925002 8.025L0.525002 8.925L1.35 9.425L1.6 8.875L2.025 9.125L1.7 9.825L1.125 9.475L0.725002 10.375L1.55 10.85L1.875 10.1L2.425 10.425L2.4 10.5L2.9 10.8L2.75 10.95L1.975 10.5L1.625 11.25L0.950002 10.85L0.550002 11.75L1.375 12.225L1.7 11.5L2.375 11.9L2.575 11.425L2.75 11.625L2.5 12.2L2.1 11.975L1.775 12.675L1.3 12.375L0.900002 13.275L1.725 13.775L2.05 13.075L2.525 13.375L2.6 13.2L2.85 13.5L2.7 13.75L2.125 13.4L1.725 14.3L2.55 14.775L2.9 14L3.5 14.85L4.05 14.225L4.5 14.725L5.15 14L4.5 13.3L3.95 13.925L3.75 13.725L3.875 13.475L4.45 12.8L4.75 13.15L5.4 12.425L4.75 11.675L4.15 12.375L3.85 12.025L3.35 12.575L3.675 11.85L3.375 11.675L3.55 11.475L3.7 11.55L4.125 12.025L4.775 11.3L4.125 10.575L4.075 10.625L3.85 10.5L4.15 10.175L4.575 10.65L4.5 10.725L5.075 11.375L4.95 11.525L5.6 12.25L6.25 11.525L5.75 9.75Z" fill="#89664C"/>
<path d="M2.4 9.525L1.85 9.175L1.55 9.8L2.125 10.15L2.4 9.525ZM3.5 9.2L3.675 8.825L3.325 8.6L3.125 9L3.5 9.2ZM2.65 10.55L2.475 10.95L2.825 11.175L3 10.775L2.65 10.55ZM2.775 11.425L2.6 11.8L2.95 12.025L3.125 11.625L2.775 11.425ZM3.3 10.375L3.65 10.575L3.825 10.2L3.475 9.975L3.3 10.375ZM1.125 11.175L0.774998 10.975L0.599998 11.35L0.949998 11.575L1.125 11.175ZM1.175 12.675L0.999998 13.075L1.35 13.275L1.525 12.9L1.175 12.675ZM1.85 14.1L2.2 14.3L2.375 13.9L2.025 13.7L1.85 14.1ZM1.825 11.575L2 11.175L1.65 10.975L1.475 11.35L1.825 11.575ZM1.9 11.85L1.6 12.475L2.175 12.825L2.45 12.2L1.9 11.85ZM2.7 13.25L3.05 13.45L3.225 13.075L2.875 12.85L2.7 13.25ZM3.025 14.175L3.375 14.375L3.55 14L3.2 13.775L3.025 14.175ZM4.55 8.8L4.275 8.475L4 8.8L4.275 9.1L4.55 8.8ZM4.825 9.775L4.4 9.275L3.95 9.775L4.4 10.275L4.825 9.775ZM4.95 10.225L4.675 10.55L4.95 10.85L5.225 10.55L4.95 10.225ZM5.1 11.35L5.375 11.675L5.65 11.35L5.375 11.025L5.1 11.35ZM4.125 11.775L4.4 12.1L4.675 11.775L4.4 11.45L4.125 11.775ZM4.2 13.35L4.475 13.65L4.75 13.35L4.475 13.025L4.2 13.35ZM3.725 14.3L4 14.625L4.275 14.3L4 13.975L3.725 14.3Z" fill="#D3976E"/>
<path d="M11.425 2.2L9.05 0.625L8.725 0.5L8.825 1.475L6 0.9L5.7 0.975L2.75 3L1.575 6L0.75 6.25V6.75L2.5 6.25L1.675 7.05L1.925 8.15L6.425 8.45L11.425 2.2Z" fill="#FFEC40"/>
<path d="M5.625 1.15C5.075 1.05 4.625 1.65 4.1 1.825C3.55 2.025 4.55 2.775 4.85 2.775C5.7 2.775 7.3 1.475 5.625 1.15ZM2.875 4.275C3.075 3.7 3 3 2.225 3.5C1.575 3.925 2.275 4.575 1.475 4.95C0.700003 5.3 1.225 6.3 1.9 6C2.5 5.775 2.7 4.85 2.875 4.275ZM2.875 4.275C2.875 4.3 2.875 4.3 2.875 4.275ZM6.175 7.825C6.3 7.95 6.225 7.9 6.175 7.825C5.25 6.925 3.9 9.075 4.2 9.475C5.375 11.025 6.725 8.4 6.175 7.825Z" fill="#83BF4F"/>
<path d="M3.325 6.375L2.675 7.9L4.325 8.5L5.25 6.825L3.325 6.375Z" fill="#ED4C5C"/>
<path d="M2.425 6.075L3.275 6.75L4.7 5.75L3.775 5L2.425 6.075ZM5.225 4.875L6.375 5.75L7.875 4.85L7.1 3.8L5.225 4.875ZM3.975 2.875L4.075 4.075L5.7 3.325L5.625 2.475L4.875 2.05L3.975 2.875ZM7.35 0.8L6.925 2.075L8.75 2.25L8.65 1.025L7.35 0.8ZM9.25 0.75L9.35 2L11.025 1.825L11.225 1.05L9.25 0.75Z" fill="#ED4C5C"/>
<path d="M8.8 2.925C9.475 3.1 8.525 2.875 8.8 2.925Z" fill="#83BF4F"/>
<path d="M9 3C8.775 2.825 8.325 3.55 8.075 3.7C7.775 3.9 5.4 4.475 7.45 5C8.1 5.175 9.5 3.4 9 3ZM10.075 2.425C10.275 2.55 9.875 2.3 10.075 2.425ZM10.825 1.425C10.4 2 10.475 0.775 9.85 1.325C9.475 1.65 9.675 2.2 10.075 2.425C10.425 2.65 11.65 2.525 11.725 1.95C11.775 1.575 11.125 1.025 10.825 1.425ZM1.75 6.5C1.4 6.5 0.674999 7.425 0.674999 7.425C0.0249991 8.125 1.375 8.125 1.4 8.25C1.2 8.4 0.999999 8.55 0.774999 8.675C0.774999 9.175 1.825 8.625 1.75 8.675C1.15 9.7 3.625 8.5 3.775 8.4C4.625 7.875 3.25 6.5 1.75 6.5ZM4.5 5.475C4.7 5.475 4.15 5.45 4.5 5.475Z" fill="#83BF4F"/>
<path d="M5.1 4.075C4.25 2.5 4.15 4.075 4 4.25C3.9 4.35 2.75 4.25 3.275 4.875C3.5 5.15 4.175 5.55 4.525 5.45C5.25 5.25 5.275 4.4 5.1 4.075Z" fill="#83BF4F"/>
<path d="M5.175 6L2.45 6.35L1.75 6.875L2.05 7.125L4.75 6.25L5.425 6.2L5.175 6ZM7.25 3.175L6.075 3.075L3.5 3.925L3.9 4.25L6.025 3.575L7.275 3.45L7.25 3.175ZM5.775 5.3L5.5 5.325L6.025 6.6L6.8 6.75L7 6.3L6.55 6.125L5.775 5.3ZM5.375 6.925L5.925 8.475L5.525 8.75L5.075 7.375L5.375 6.925ZM9.65 1.825L9.125 1.675L8.725 0.5L8.4 0.525L8.8 1.9L9.475 2.175L9.65 1.825ZM7.4 1.325L5.7 0.975L5.525 1.25L7.325 1.725L7.4 1.325Z" fill="#FFFFD4"/>
<path d="M4.1 15.475C4.1 15.475 5.15 15.475 5.75 11.425C6.375 7.325 9.125 1.8 13.4 1.8C14.875 1.8 15.9 2.775 15.325 8.1C15.25 9.025 5.4 15.475 4.1 15.475Z" fill="#FBBF67"/>
<path d="M13.425 1.55C8 1.55 6.325 7.7 5.75 11.425C5.125 15.475 3.475 15.475 3.475 15.475C3.475 15.475 4.525 15.6 4.825 15.35C5.275 14.975 5.8 14 6.125 11.85C6.7 8.1 8.7 1.925 13.55 1.925C14.925 1.925 15.375 3.9 15.375 3.9C15.375 3.9 15.15 1.55 13.425 1.55Z" fill="#FDDFB3"/>
<path d="M9.8 10.2L10.05 9.95L10.3 10.2L10.05 10.475L9.8 10.2ZM10.125 6.7L10.375 6.425L10.625 6.7L10.375 6.975L10.125 6.7ZM14.025 6.7L14.275 6.425L14.525 6.7L14.275 6.975L14.025 6.7ZM13.55 3.95L13.8 3.675L14.05 3.95L13.8 4.2L13.55 3.95Z" fill="#D3976E"/>
<path d="M12.075 8.35L11.825 8.6L12.075 8.875L12.325 8.6L12.075 8.35ZM12.675 5.2L12.425 5.45L12.675 5.725L12.925 5.45L12.675 5.2ZM10.75 4.25L10.5 4.525L10.75 4.8L11 4.525L10.75 4.25ZM8.375 8.2L8.125 8.475L8.375 8.725L8.625 8.475L8.375 8.2ZM7.8 11.6L7.55 11.875L7.8 12.125L8.05 11.875L7.8 11.6Z" fill="#FDDFB3"/>
</g>
<defs>
<clipPath id="clip0_1_76">
<rect width="16" height="16" fill="white"/>
</clipPath>
</defs>
</svg>
