<svg width="16" height="16" viewBox="0 0 16 16" fill="none" xmlns="http://www.w3.org/2000/svg">
<path d="M15.178 13.226L13.855 7.2935C13.3815 4.8295 11.17 2.9895 8.54401 3.1055C7.74801 3.14 7.03501 3.5295 6.43351 4.076C5.83051 4.623 5.30751 5.354 4.87951 6.1435C4.02651 7.7135 3.49501 9.6165 3.49501 11V13.6C3.49501 14.6225 4.30951 15.4925 5.35601 15.5C5.60571 15.5023 5.85334 15.4545 6.08421 15.3593C6.31508 15.2642 6.52449 15.1236 6.70001 14.946C6.87405 15.1217 7.08122 15.2611 7.30951 15.3562C7.53781 15.4513 7.7827 15.5002 8.03001 15.5C8.2772 15.4997 8.52191 15.4507 8.75013 15.3557C8.97835 15.2607 9.18559 15.1217 9.36001 14.9465C9.53409 15.1221 9.74128 15.2615 9.96957 15.3565C10.1979 15.4515 10.4427 15.5003 10.69 15.5C10.9372 15.4997 11.1819 15.4507 11.4101 15.3557C11.6383 15.2607 11.8456 15.1217 12.02 14.9465C12.2816 15.2104 12.6157 15.3906 12.9798 15.4642C13.344 15.5378 13.7219 15.5014 14.0654 15.3598C14.4089 15.2182 14.7025 14.9776 14.909 14.6687C15.1155 14.3598 15.2255 13.9965 15.225 13.625V13.6125L15.2245 13.6C15.2195 13.4743 15.2039 13.3491 15.178 13.226Z" fill="#9B9B9B"/>
<path d="M4.65001 8.33L5.04001 8.525C5.35501 8.68 5.55501 9.005 5.55501 9.36V10.5H3.91001L1.51851 9.826C1.48328 9.7232 1.48559 9.61126 1.52501 9.51L1.67001 9.15C1.87167 8.64865 2.2021 8.20942 2.6279 7.87668C3.0537 7.54394 3.55978 7.32949 4.09501 7.255C4.32001 7.225 4.51501 7.395 4.51501 7.62V8.115C4.51501 8.205 4.57001 8.29 4.65001 8.33Z" fill="#F9C23C"/>
<path d="M1.67 10.055C2.15 10.54 3.09 11 3.91 11H5.555V10.37L5.3 9.82H1.5175C1.5425 9.905 1.6 9.985 1.67 10.055Z" fill="#FFB02E"/>
<path d="M10.36 5.93V5.71C10.0096 5.68214 9.6696 5.57715 9.36447 5.40254C9.05934 5.22793 8.79659 4.98803 8.59501 4.7C8.29001 5.075 7.84501 5.34 7.34001 5.405C7.3863 5.68933 7.36855 5.98041 7.28805 6.25701C7.20756 6.53361 7.06635 6.78876 6.87473 7.00386C6.6831 7.21896 6.44589 7.38858 6.18039 7.50036C5.91489 7.61214 5.62778 7.66327 5.34001 7.65C4.35001 7.605 3.54501 6.795 3.50001 5.805C3.48064 5.37343 3.60587 4.94774 3.85586 4.59541C4.10584 4.24308 4.46627 3.98427 4.88001 3.86C5.04501 3.81 5.15501 3.66 5.15501 3.49V3.485C5.15501 2.415 6.02001 1.55 7.09001 1.55C7.37001 1.55 7.63501 1.61 7.87501 1.715C8.25501 1.885 8.70501 1.82 9.02501 1.55C9.44586 1.19785 9.97628 1.00337 10.525 1H10.595C12.32 1.04 13.135 3.155 11.915 4.375L10.36 5.93ZM4.50001 11.75L3.99501 12.7C3.99501 13.14 3.64001 13.5 3.19501 13.5C2.62501 13.5 2.24001 12.92 2.45501 12.39L2.84001 11.47C2.96001 11.185 3.23501 11 3.54501 11H3.99501L4.50001 11.75Z" fill="#F8312F"/>
<path d="M14.69 13.335L13.365 7.395C12.94 5.165 10.94 3.5 8.56501 3.605C6.00001 3.715 3.99501 5.865 3.99501 8.43V13.6C3.99501 14.36 4.60001 14.995 5.36001 15C5.83001 15.005 6.24501 14.77 6.50001 14.41C6.60001 14.27 6.80501 14.27 6.90001 14.41C7.15001 14.765 7.56001 15 8.03001 15C8.49501 15 8.91001 14.765 9.16001 14.41C9.26001 14.27 9.46501 14.27 9.56001 14.41C9.81001 14.765 10.22 15 10.69 15C11.155 15 11.57 14.765 11.82 14.41C11.92 14.27 12.125 14.27 12.22 14.41C12.47 14.765 12.88 15 13.35 15C14.11 15 14.725 14.385 14.725 13.625C14.72 13.525 14.71 13.425 14.69 13.335Z" fill="white"/>
<path d="M6.75001 9C6.94892 9 7.13969 8.92098 7.28034 8.78033C7.42099 8.63968 7.50001 8.44891 7.50001 8.25C7.50001 8.05109 7.42099 7.86032 7.28034 7.71967C7.13969 7.57902 6.94892 7.5 6.75001 7.5C6.5511 7.5 6.36033 7.57902 6.21968 7.71967C6.07903 7.86032 6.00001 8.05109 6.00001 8.25C6.00001 8.44891 6.07903 8.63968 6.21968 8.78033C6.36033 8.92098 6.5511 9 6.75001 9Z" fill="#212121"/>
</svg>
