<svg width="16" height="16" viewBox="0 0 16 16" fill="none" xmlns="http://www.w3.org/2000/svg">
<path d="M14.4805 10.0449C14.4805 11.5346 11.578 12.7422 7.99744 12.7422C4.41691 12.7422 1.51434 11.5346 1.51434 10.0449C1.51434 8.55516 4.41691 7.34755 7.99744 7.34755C11.578 7.34755 14.4805 8.55516 14.4805 10.0449Z" fill="#B39671"/>
<path d="M15.4754 8.78973C15.4754 10.6424 12.1274 12.1443 7.99744 12.1443C3.86752 12.1443 0.519524 10.6424 0.519524 8.78973C0.519524 6.937 3.86752 5.43517 7.99744 5.43517C12.1274 5.43517 15.4754 6.937 15.4754 8.78973Z" fill="#EDD3B1"/>
<path d="M14.9733 8.78973C14.9733 10.518 11.8502 11.9192 7.99744 11.9192C4.14473 11.9192 1.02153 10.518 1.02153 8.78973C1.02153 7.06141 4.14473 5.6604 7.99744 5.6604C11.8502 5.6604 14.9733 7.06141 14.9733 8.78973Z" fill="#E5C191"/>
<path d="M2.63667 9.34885C2.63667 7.62052 5.75989 6.21948 9.6126 6.21948C10.8494 6.21948 12.0107 6.36404 13.018 6.61722C11.7492 6.02736 9.96902 5.6604 7.99744 5.6604C4.14473 5.6604 1.02153 7.06141 1.02153 8.78973C1.02153 9.96321 2.46165 10.9857 4.59207 11.5214C3.38154 10.9585 2.63667 10.1927 2.63667 9.34885Z" fill="#CBAA80"/>
<path d="M13.5057 9.5372C13.5057 10.3935 11.6737 11.9192 9.05281 11.9192C6.43208 11.9192 2.67955 10.5068 2.67955 9.65045C2.67955 8.79404 5.65183 8.65033 8.27256 8.65033C10.8934 8.65033 13.5057 8.68078 13.5057 9.5372Z" fill="#BB9D76"/>
<path d="M13.7213 8.80935C13.7213 10.2193 11.1406 11.8214 8.03249 11.3623C4.65342 10.8633 2.34375 10.2193 2.34375 8.80935C2.34375 7.39945 4.8907 6.25645 8.03249 6.25645C11.1743 6.25645 13.7213 7.39945 13.7213 8.80935Z" fill="#F8E267"/>
<path d="M13.7213 8.38507C13.7213 9.79506 11.1406 11.3971 8.03249 10.9381C4.65342 10.439 2.34375 9.79506 2.34375 8.38507C2.34375 6.97514 4.8907 5.83214 8.03249 5.83214C11.1743 5.83214 13.7213 6.97514 13.7213 8.38507Z" fill="#F68520"/>
<path d="M13.2416 7.35789C13.3088 7.51478 13.3444 7.67675 13.3444 7.84243C13.3444 9.25242 10.7637 10.8544 7.65563 10.3954C5.15938 10.0267 3.24703 9.57887 2.41801 8.80166C2.8373 9.9276 5.00569 10.491 8.03249 10.9381C11.1406 11.3971 13.7213 9.79506 13.7213 8.38507C13.7213 8.01967 13.5498 7.67224 13.2416 7.35789Z" fill="#F47322"/>
<path d="M8.03249 10.7324C5.38852 10.342 3.39965 9.86269 2.65934 8.99717C2.57107 8.93438 2.4902 8.86938 2.41801 8.80166C2.8373 9.9276 5.00569 10.491 8.03249 10.9381C11.1406 11.3971 13.7213 9.79506 13.7213 8.38507C13.7213 8.35076 13.7193 8.31668 13.7163 8.28266C13.595 9.6662 11.065 11.1803 8.03249 10.7324Z" fill="#DD5321"/>
<path d="M2.38086 7.51517C2.38086 8.8036 4.96153 10.2675 8.06966 9.84808C11.4488 9.39205 13.7584 8.8036 13.7584 7.51517C13.7584 6.22673 11.2115 5.1822 8.06966 5.1822C4.92784 5.1822 2.38086 6.22673 2.38086 7.51517Z" fill="#F8E267"/>
<path d="M2.38086 7.12739C2.38086 8.41582 4.96153 9.8798 8.06966 9.4603C11.4488 9.00427 13.7584 8.41582 13.7584 7.12739C13.7584 5.839 11.2115 4.7945 8.06966 4.7945C4.92784 4.7945 2.38086 5.839 2.38086 7.12739Z" fill="#F68520"/>
<path d="M2.86054 6.18874C2.79339 6.33215 2.75778 6.48009 2.75778 6.63157C2.75778 7.91992 5.33845 9.3839 8.44652 8.96445C10.9428 8.62756 12.8551 8.21828 13.6841 7.5081C13.2648 8.537 11.0965 9.05184 8.06966 9.4603C4.96153 9.8798 2.38086 8.41582 2.38086 7.12739C2.38086 6.79344 2.55234 6.476 2.86054 6.18874Z" fill="#F47322"/>
<path d="M8.06966 9.27247C10.7136 8.91559 12.7025 8.47759 13.4428 7.68679C13.5311 7.62933 13.612 7.56992 13.6841 7.5081C13.2648 8.537 11.0965 9.05184 8.06966 9.4603C4.96153 9.8798 2.38086 8.41582 2.38086 7.12739C2.38086 7.09602 2.38286 7.06488 2.38587 7.03381C2.5071 8.29807 5.03708 9.68173 8.06966 9.27247Z" fill="#DD5321"/>
<path d="M13.5057 6.1171C13.5057 7.47363 11.0228 9.0149 8.03249 8.57328C4.78146 8.09313 2.55932 7.47363 2.55932 6.1171C2.55932 4.76057 5.00975 3.66085 8.03249 3.66085C11.0553 3.66085 13.5057 4.76057 13.5057 6.1171Z" fill="#F8E267"/>
<path d="M13.5057 5.70888C13.5057 7.06542 11.0228 8.60674 8.03249 8.16506C4.78146 7.68491 2.55932 7.06542 2.55932 5.70888C2.55932 4.35235 5.00975 3.25262 8.03249 3.25262C11.0553 3.25262 13.5057 4.35235 13.5057 5.70888Z" fill="#F68520"/>
<path d="M13.0442 4.7206C13.1088 4.87156 13.1431 5.02733 13.1431 5.18674C13.1431 6.54333 10.6602 8.08459 7.66989 7.64296C5.26823 7.28829 3.42837 6.85739 2.63077 6.10963C3.03416 7.19292 5.12041 7.73498 8.03249 8.16506C11.0228 8.60674 13.5057 7.06542 13.5057 5.70889C13.5057 5.3573 13.3407 5.02298 13.0442 4.7206Z" fill="#F47322"/>
<path d="M8.03249 7.96728C5.48869 7.59154 3.57519 7.13042 2.86295 6.29774C2.77804 6.23736 2.70019 6.17478 2.63077 6.10962C3.03416 7.19292 5.12041 7.73498 8.03249 8.16506C11.0228 8.60674 13.5057 7.06542 13.5057 5.70888C13.5057 5.67587 13.5038 5.64296 13.5009 5.61033C13.3843 6.94139 10.9501 8.39818 8.03249 7.96728Z" fill="#DD5321"/>
<path d="M6.32107 5.60989C6.32107 5.60989 4.23097 4.06801 7.48604 3.79386C10.7411 3.51977 12.1687 4.45332 12.2259 5.37002C12.2259 5.37002 11.7905 7.75563 10.1464 8.25433C9.67896 8.40808 8.77807 8.67822 9.64856 8.92041C10.5191 9.16261 11.2664 8.63616 10.684 9.12747C10.684 9.12747 9.4562 9.65858 10.1757 9.82711C10.8953 9.99564 11.954 10.1325 11.025 10.386C10.096 10.6395 8.15811 10.7836 9.47331 9.94398C10.21 9.29321 9.14782 9.48162 9.14782 9.48162C9.14782 9.48162 7.43465 9.27606 8.78809 8.47087C10.1415 7.66567 8.74806 6.58247 7.02347 7.16403C5.29889 7.74561 5.90678 7.89271 6.26543 7.96133C6.62409 8.02987 7.10677 8.58633 6.5083 8.61422C5.9099 8.6422 5.99473 9.45741 5.32743 9.143C4.66011 8.82858 5.20982 8.50436 5.9613 8.53573C6.71274 8.5671 6.26947 8.19309 5.81854 8.0769C5.36758 7.96065 5.31597 7.59714 5.84136 7.39159C6.36676 7.18597 7.40039 6.15811 6.32107 5.60989Z" fill="#EB2F24"/>
<path d="M7.02347 7.16403C7.25191 7.08697 7.47447 7.03941 7.68565 7.01626C7.3201 6.97276 6.8864 7.00992 6.42937 7.16403C6.23604 7.22918 6.07682 7.28867 5.94654 7.34295C5.9099 7.36228 5.87462 7.37853 5.84137 7.39159C5.80873 7.40434 5.77834 7.41776 5.75009 7.43164L5.7488 7.43232C5.55328 7.52884 5.46322 7.64998 5.46395 7.76331C5.55747 7.86369 5.86304 7.90929 6.03249 7.94166C6.39117 8.01019 6.8738 8.56662 6.27539 8.5946C5.8079 8.61649 5.75733 9.11873 5.43953 9.18756C5.98687 9.36228 5.94578 8.64052 6.50831 8.61422C7.10677 8.58633 6.62409 8.02987 6.26543 7.96133C5.90678 7.89271 5.29893 7.74561 7.02347 7.16403Z" fill="#D1291F"/>
<path d="M10.1758 9.82711C9.4562 9.65858 10.684 9.12747 10.684 9.12747C11.2664 8.63616 10.5191 9.16261 9.64857 8.92041C8.77807 8.67822 9.67896 8.40807 10.1464 8.25432C11.7905 7.75563 12.2259 5.37002 12.2259 5.37002C12.1764 4.57478 11.0951 3.76708 8.68456 3.74591C10.7862 3.82923 11.9062 4.45143 11.9518 5.1822C11.9518 5.1822 11.1965 7.75563 9.55228 8.25432C9.0848 8.40807 8.18396 8.67822 9.05449 8.92041C9.92499 9.16261 10.7068 8.79963 10.1243 9.29085C10.1243 9.29085 9.2953 9.75268 10.0148 9.92127C10.7344 10.0898 11.3599 10.1325 10.4309 10.386C10.1281 10.4686 9.71822 10.5396 9.34861 10.5687C9.7766 10.6212 10.5388 10.5186 11.025 10.386C11.954 10.1325 10.8953 9.99564 10.1758 9.82711Z" fill="#D1291F"/>
<path d="M6.2459 4.76899C6.16173 4.85338 6.0195 4.83656 5.96041 4.73304C5.87394 4.58165 5.95255 4.20667 6.40672 4.08279C6.9691 3.92943 6.48083 4.53355 6.2459 4.76899Z" fill="#EC3C2B"/>
<path d="M6.40684 7.03381C6.62944 6.92622 6.89214 6.58359 6.89214 6.25645C6.89214 5.97965 7.37753 5.75389 7.24049 6.26994C7.10341 6.78605 6.89235 7.03812 6.40684 7.03381Z" fill="#EC3C2B"/>
<path d="M8.70809 6.77165C8.70809 6.77165 10.0101 7.21336 9.5761 8.04916C9.14208 8.88505 10.6497 7.18733 10.6497 7.18733C10.6497 7.18733 9.81512 7.26529 9.67896 6.77165C9.54271 6.27801 8.02359 6.37058 8.70809 6.77165Z" fill="#EC3C2B"/>
<path d="M9.59072 10.3759C9.59072 10.3759 9.10786 10.5358 9.39341 10.2617C9.67896 9.98763 10.0558 9.95332 9.98725 10.1818C9.9188 10.4102 9.59072 10.3759 9.59072 10.3759Z" fill="#EC3C2B"/>
</svg>
