<svg width="18" height="18" viewBox="0 0 18 18" fill="none" xmlns="http://www.w3.org/2000/svg">
<path d="M9 2C12.6285 2 15.5 4 16.3495 3C16.448 2.8385 16.5 2.6715 16.5 2.5C16.5 1.5 13.142 0 9 0C4.858 0 1.5 1.5 1.5 2.5C1.5 2.6715 1.552 2.8385 1.6505 3C2.5 4 5.3715 2 9 2Z" fill="#F4900C"/>
<path d="M9 1.5C5.8935 1.5 3.692 2.405 2.8635 2.809C2.625 2.9255 2.594 3.229 2.656 3.448C2.718 3.667 8 17 8 17C8 17 8.448 18 9 18C9.552 18 10 17 10 17L15.352 3.3895C15.352 3.3895 15.4585 2.9685 15.0675 2.775C14.196 2.3445 12.0235 1.5 9 1.5Z" fill="#FFCC4D"/>
<path d="M9 15.5C9 14.9696 8.78928 14.4609 8.41421 14.0858C8.03914 13.7107 7.53043 13.5 7 13.5C6.873 13.5 6.75 13.5145 6.6295 13.5375L8 17C8 17 8.0355 17.07 8.095 17.171C8.37291 16.9897 8.60122 16.742 8.75924 16.4502C8.91726 16.1584 9.00001 15.8318 9 15.5ZM8.5 10C8.5 9.46957 8.28928 8.96086 7.91421 8.58579C7.53914 8.21071 7.03043 8 6.5 8C5.787 8 5.165 8.376 4.811 8.938L5.992 11.927C6.15749 11.973 6.32823 11.9976 6.5 12C7.604 12 8.5 11.104 8.5 10Z" fill="#BE1931"/>
<path d="M8 6C9.10457 6 10 5.10457 10 4C10 2.89543 9.10457 2 8 2C6.89543 2 6 2.89543 6 4C6 5.10457 6.89543 6 8 6Z" fill="#BE1931"/>
<path d="M12.5 4.5C11.9696 4.5 11.4609 4.71071 11.0858 5.08579C10.7107 5.46086 10.5 5.96957 10.5 6.5C10.5 7.03043 10.7107 7.53914 11.0858 7.91421C11.4609 8.28929 11.9696 8.5 12.5 8.5C12.841 8.5 13.1575 8.4065 13.4385 8.256L14.3835 5.853C14.1135 5.0675 13.376 4.5 12.5 4.5ZM9.5 12.5C9.50067 12.9441 9.64951 13.3753 9.92294 13.7252C10.1964 14.0752 10.5787 14.3239 11.0095 14.432L12.456 10.7535C12.164 10.5893 11.835 10.5021 11.5 10.5C10.396 10.5 9.5 11.396 9.5 12.5ZM5 6C5 5.46957 4.78928 4.96086 4.41421 4.58579C4.03914 4.21071 3.53043 4 3 4C2.9565 4 2.9155 4.01 2.8725 4.013C3.1475 4.719 3.66 6.021 4.26 7.5415C4.708 7.1745 5 6.624 5 6Z" fill="#BE1931"/>
</svg>
