<svg width="18" height="18" viewBox="0 0 18 18" fill="none" xmlns="http://www.w3.org/2000/svg">
<path d="M9 17C13.9706 17 18 14.7614 18 12C18 9.23858 13.9706 7 9 7C4.02944 7 0 9.23858 0 12C0 14.7614 4.02944 17 9 17Z" fill="#939598"/>
<path d="M9 16C13.9706 16 18 13.7614 18 11C18 8.23858 13.9706 6 9 6C4.02944 6 0 8.23858 0 11C0 13.7614 4.02944 16 9 16Z" fill="#F1F2F2"/>
<path d="M9 14.611C13.0869 14.611 16.4 12.9072 16.4 10.8055C16.4 8.70378 13.0869 7 9 7C4.91309 7 1.6 8.70378 1.6 10.8055C1.6 12.9072 4.91309 14.611 9 14.611Z" fill="#FFCC4D"/>
<path d="M5.5 13.5C5.36739 13.5 5.24022 13.4473 5.14645 13.3536C5.05268 13.2598 5 13.1326 5 13C5 12.8674 5.05268 12.7402 5.14645 12.6464C5.24022 12.5527 5.36739 12.5 5.5 12.5C6.449 12.5 7.041 11.9575 7.087 11.5825C7.1325 11.2145 6.607 11.042 6.3785 10.985C5.9255 10.8725 5.5885 11.0015 5.1995 11.1525C4.6655 11.3595 3.934 11.6415 3.1465 10.8535C2.802 10.5095 2.7125 10.0515 2.9005 9.597C3.267 8.7125 4.6225 8 5.5 8C5.63261 8 5.75979 8.05268 5.85356 8.14645C5.94732 8.24021 6 8.36739 6 8.5C6 8.63261 5.94732 8.75979 5.85356 8.85355C5.75979 8.94732 5.63261 9 5.5 9C4.9425 9 4.0025 9.5495 3.8245 9.98C3.7875 10.069 3.8025 10.095 3.8535 10.1465C4.168 10.4605 4.3175 10.4205 4.839 10.22C5.27 10.053 5.86 9.825 6.621 10.0155C7.813 10.3135 8.156 11.0835 8.0795 11.705C7.971 12.587 6.9765 13.5 5.5 13.5ZM8.5 14C8.36739 14 8.24022 13.9473 8.14645 13.8536C8.05268 13.7598 8 13.6326 8 13.5C8 13.3674 8.05268 13.2402 8.14645 13.1464C8.24022 13.0527 8.36739 13 8.5 13C11.3485 13 13.4165 12.3765 14.6465 11.1465C14.7403 11.0527 14.8674 11.0001 15 11.0001C15.1326 11.0001 15.2597 11.0527 15.3535 11.1465C15.4473 11.2403 15.4999 11.3674 15.4999 11.5C15.4999 11.6326 15.4473 11.7597 15.3535 11.8535C13.929 13.278 11.6235 14 8.5 14Z" fill="#FFE8B6"/>
<path d="M10.6745 12.08C10.406 12.08 10.14 12.05 9.879 11.9845C9.6075 11.917 8.782 11.7105 8.756 11.043C8.737 10.543 9.0865 9.957 11.725 9.0645C11.4375 8.83 10.746 8.5 10 8.5C8.7435 8.5 8.1015 8.6055 7.8535 8.8535C7.80708 8.89992 7.75197 8.93675 7.69131 8.96187C7.63066 8.98699 7.56565 8.99992 7.5 8.99992C7.43435 8.99992 7.36934 8.98699 7.30869 8.96187C7.24803 8.93675 7.19292 8.89992 7.1465 8.8535C7.10008 8.80708 7.06325 8.75197 7.03813 8.69131C7.01301 8.63066 7.00008 8.56565 7.00008 8.5C7.00008 8.43435 7.01301 8.36934 7.03813 8.30869C7.06325 8.24803 7.10008 8.19292 7.1465 8.1465C7.624 7.669 8.3705 7.5 10 7.5C11.198 7.5 12.698 8.1665 12.838 9.0265C12.8915 9.3575 12.7415 9.7795 12.1585 9.974C10.867 10.4045 10.198 10.7485 9.908 10.9525C9.96367 10.9722 10.0348 10.993 10.1215 11.015C11.737 11.417 13.7825 9.832 14.0055 9.425C14.0242 9.30011 14.0894 9.18691 14.1881 9.10814C14.2868 9.02937 14.4117 8.99087 14.5376 9.00037C14.6635 9.00986 14.7812 9.06665 14.867 9.15934C14.9527 9.25202 15.0003 9.37372 15 9.5C15 9.853 14.6825 10.28 14.0565 10.7685C13.185 11.449 11.912 12.0795 10.6745 12.08Z" fill="#FFE8B6"/>
<path d="M13.5 10.25C13.5 11.4925 12.4855 13 10 13C7.5145 13 8 12 4 10.5C2.312 9.867 6.5145 8 9 8C11.4855 8 13.5 9.0075 13.5 10.25Z" fill="#DD2E44"/>
<path d="M8 12C7.90102 12.0002 7.80421 11.971 7.72185 11.9161C7.63948 11.8612 7.57529 11.7831 7.53742 11.6916C7.49954 11.6002 7.48969 11.4995 7.50911 11.4025C7.52853 11.3054 7.57635 11.2163 7.6465 11.1465C7.787 10.994 7.7025 10.9095 7.6465 10.8535C7.3675 10.5745 6.5275 10.5455 5.7235 10.9475C5.66477 10.9769 5.60082 10.9944 5.53532 10.9991C5.46981 11.0038 5.40402 10.9955 5.34171 10.9747C5.27941 10.954 5.2218 10.9211 5.17217 10.8781C5.12255 10.8351 5.08189 10.7827 5.0525 10.724C5.02312 10.6653 5.00559 10.6013 5.00092 10.5358C4.99625 10.4703 5.00453 10.4045 5.02528 10.3422C5.04604 10.2799 5.07886 10.2223 5.12188 10.1727C5.1649 10.123 5.21727 10.0824 5.276 10.053C6.2645 9.559 7.639 9.432 8.353 10.147C8.979 10.773 8.696 11.511 8.353 11.854C8.2593 11.9475 8.13236 12 8 12ZM10 10C8.793 10 8.1575 9.3645 7.6465 8.8535C7.60008 8.80708 7.56326 8.75197 7.53813 8.69131C7.51301 8.63066 7.50008 8.56565 7.50008 8.5C7.50008 8.43435 7.51301 8.36934 7.53813 8.30869C7.56326 8.24803 7.60008 8.19292 7.6465 8.1465C7.69293 8.10008 7.74804 8.06325 7.80869 8.03813C7.86934 8.01301 7.93435 8.00008 8 8.00008C8.06565 8.00008 8.13066 8.01301 8.19132 8.03813C8.25197 8.06325 8.30708 8.10008 8.3535 8.1465C8.8305 8.6235 9.207 9 10 9C10.3865 9 11.293 9 11.6465 8.6465C11.6929 8.60008 11.748 8.56325 11.8087 8.53813C11.8693 8.51301 11.9344 8.50008 12 8.50008C12.0657 8.50008 12.1307 8.51301 12.1913 8.53813C12.252 8.56325 12.3071 8.60008 12.3535 8.6465C12.3999 8.69292 12.4367 8.74803 12.4619 8.80869C12.487 8.86934 12.4999 8.93435 12.4999 9C12.4999 9.06565 12.487 9.13066 12.4619 9.19131C12.4367 9.25197 12.3999 9.30708 12.3535 9.3535C11.707 10 10.554 10 10 10ZM10 12C9.8674 12 9.74022 11.9473 9.64645 11.8536C9.55268 11.7598 9.5 11.6326 9.5 11.5C9.5 11.3674 9.55268 11.2402 9.64645 11.1464C9.74022 11.0527 9.8674 11 10 11C10.9235 11 12.274 10.519 12.6465 10.1465C12.6929 10.1001 12.748 10.0633 12.8087 10.0381C12.8693 10.013 12.9344 10.0001 13 10.0001C13.0657 10.0001 13.1307 10.013 13.1913 10.0381C13.252 10.0633 13.3071 10.1001 13.3535 10.1465C13.3999 10.1929 13.4368 10.248 13.4619 10.3087C13.487 10.3693 13.4999 10.4343 13.4999 10.5C13.4999 10.5657 13.487 10.6307 13.4619 10.6913C13.4368 10.752 13.3999 10.8071 13.3535 10.8535C12.708 11.499 11.0205 12 10 12Z" fill="#EA596E"/>
<path d="M8.5005 10C8.4075 10.0001 8.3163 9.97433 8.23716 9.92549C8.15802 9.87664 8.09407 9.80669 8.0525 9.7235C7.553 8.725 6.514 6.647 6.0035 2.562C5.99367 2.49607 5.99712 2.42884 6.01365 2.36427C6.03018 2.29969 6.05945 2.23908 6.09975 2.18598C6.14005 2.13288 6.19056 2.08838 6.2483 2.05509C6.30605 2.0218 6.36987 2.00039 6.43601 1.99212C6.50216 1.98385 6.56928 1.98889 6.63345 2.00695C6.69761 2.025 6.75752 2.0557 6.80965 2.09724C6.86178 2.13879 6.90507 2.19033 6.93699 2.24885C6.96891 2.30737 6.9888 2.37168 6.9955 2.438C7.485 6.353 8.472 8.3275 8.9465 9.2765C8.98454 9.35263 9.00252 9.43722 8.99874 9.52225C8.99495 9.60727 8.96952 9.68993 8.92486 9.76238C8.8802 9.83483 8.81778 9.89468 8.74352 9.93626C8.66926 9.97785 8.58561 9.99978 8.5005 10Z" fill="#FFAC33"/>
<path d="M17.5625 5.521L9.9425 3.2695C8.267 0.615 6.1595 1.042 5 1C4.875 0.9955 4.5905 1.11 4.5835 1.3125C4.576 1.5085 5.0965 1.481 5.1765 1.484C6.029 1.515 7.149 1.572 8.2425 2.727C6.9135 2.264 4.872 1.9665 4.5 2C4.271 2.021 4.25 2.1875 4.521 2.3125C4.7435 2.4155 6.807 3.136 7.941 3.4825C7.2315 3.727 6.298 3.84 4.724 3.0525C4.4755 2.9285 4.1235 2.753 4 3C3.8765 3.247 4.253 3.3765 4.5 3.5C5.58 4.04 6.215 4.666 6.9115 4.666C7.7395 4.666 8.3385 4.4135 8.8075 4.2165C8.974 4.1465 9.1245 4.085 9.259 4.045C9.267 4.05 9.273 4.057 9.281 4.0615L16.6835 7.3575C16.926 7.49 17.4695 6.962 17.602 6.72C17.7345 6.477 17.742 5.6325 17.5625 5.521Z" fill="#99AAB5"/>
<path d="M6.5 9.5C6.3674 9.49997 6.24024 9.44728 6.1465 9.3535C5.489 8.696 3.9235 4.92 6.1095 2.1875C6.1505 2.13625 6.2012 2.09358 6.2587 2.06193C6.31619 2.03027 6.37936 2.01025 6.44459 2.00301C6.50983 1.99576 6.57585 2.00144 6.63889 2.01971C6.70193 2.03799 6.76075 2.06849 6.812 2.1095C6.86324 2.15051 6.90591 2.2012 6.93757 2.2587C6.96923 2.31619 6.98925 2.37936 6.99649 2.4446C7.00373 2.50983 6.99806 2.57585 6.97978 2.63889C6.96151 2.70193 6.931 2.76075 6.89 2.812C5.066 5.0925 6.501 8.2935 6.853 8.646C6.92329 8.71577 6.97125 8.80487 6.99079 8.90197C7.01033 8.99907 7.00056 9.09978 6.96272 9.19131C6.92489 9.28284 6.8607 9.36106 6.7783 9.41603C6.69591 9.47099 6.59904 9.50022 6.5 9.5Z" fill="#FFAC33"/>
</svg>
