<svg width="16" height="16" viewBox="0 0 16 16" fill="none" xmlns="http://www.w3.org/2000/svg">
<path d="M12.5 11.25C14 9.2 1.125 8.7 1.125 8.7C1.125 8.7 0.825002 9.125 1.05 9.45C1.2 9.675 1.325 9.775 1.25 10C1.175 10.25 1.45 10.5 1.5 10.75C1.575 11.15 1.35 11.35 1.825 11.575C2 11.65 2.925 11.975 2.975 11.575C3.125 11.925 3.425 12.25 3.775 12.4C4.125 12.575 4.575 12.6 4.9 12.675C5.075 13.075 5.325 12.9 5.6 13.1C5.9 13.325 6.35 13.525 6.725 13.45C7.05 13.4 7.025 13.225 7.375 13.5C7.35 13.9 7.725 13.725 8 13.825C8.25 13.9 9.3 13.9 9.45 13.95C9.6 14.025 9.325 14.35 9.55 14.475C9.925 14.675 10.375 13.775 10.55 13.625C10.525 13.775 10.45 14.45 10.8 14.35C11.25 14.225 11.125 13.575 11.5 13.45C11.925 13.275 12.2 13.025 12.3 12.575C12.35 12.4 12.35 12.225 12.35 12.075C12.625 11.975 12.65 11.4 12.5 11.25Z" fill="#F7F2DF"/>
<path d="M6.925 12.875C6.5 12.65 6.1 12.6 6 12.75C5.9 12.9 6.175 13.225 6.575 13.45C7 13.675 7.4 13.725 7.5 13.575C7.625 13.4 7.35 13.1 6.925 12.875ZM3 11.375C2.575 11.175 2.15 11.125 2.075 11.3C1.975 11.45 2.25 11.75 2.7 11.975C3.125 12.175 3.55 12.225 3.625 12.05C3.7 11.875 3.425 11.575 3 11.375ZM4.65 12.15C4.225 11.95 3.8 11.9 3.725 12.075C3.65 12.25 3.925 12.55 4.35 12.75C4.775 12.95 5.2 13 5.275 12.825C5.35 12.65 5.075 12.35 4.65 12.15ZM9.675 13.125C9.725 13 9.75 12.9 9.7 12.825C9.575 12.675 9.175 12.775 8.8 13.05C8.425 13.325 8.225 13.675 8.35 13.825C8.4 13.9 8.525 13.9 8.675 13.875C8.575 14.05 8.55 14.2 8.625 14.275C8.75 14.425 9.15 14.275 9.5 13.975C9.85 13.675 10.025 13.3 9.9 13.175C9.825 13.125 9.75 13.1 9.675 13.125ZM8.325 12.525C8.325 12.55 8.35 12.575 8.35 12.575C8.475 12.725 8.875 12.625 9.25 12.35C9.625 12.075 9.825 11.725 9.7 11.575C9.575 11.425 9.175 11.525 8.8 11.8L8.725 11.875C8.725 11.825 8.725 11.775 8.675 11.75C8.6 11.65 8.4 11.675 8.175 11.8C8.1 11.8 8 11.775 7.925 11.775C7.45 11.75 7.05 11.9 7.05 12.075C7.05 12.2 7.225 12.325 7.5 12.375C7.375 12.575 7.325 12.75 7.425 12.825C7.55 12.975 7.95 12.825 8.3 12.525H8.325ZM11.125 12C10.95 11.925 10.65 12.2 10.45 12.6C10.325 12.85 10.25 13.475 10.425 13.5C10.625 13.5 10.9 13.3 11.1 12.9C11.3 12.475 11.3 12.075 11.125 12ZM12.375 10.5C12.2 10.425 11.9 10.7 11.7 11.1C11.5 11.525 11.5 11.925 11.675 12C11.85 12.075 12.15 11.8 12.35 11.4C12.55 10.975 12.55 10.575 12.375 10.5ZM3.5 11.125C3.425 11.3 3.7 11.6 4.125 11.8C4.55 12 4.975 12.05 5.05 11.875C5.125 11.7 4.85 11.4 4.425 11.2C4.025 11 3.6 10.975 3.5 11.125ZM2.5 10.3C2.475 9.85 2.3 9.475 2.1 9.5C1.9 9.5 1.775 9.875 1.8 10.35C1.825 10.825 2 11.175 2.2 11.15C2.375 11.125 2.525 10.75 2.5 10.3ZM3.85 10.65C4.125 10.275 4.225 9.9 4.075 9.775C3.925 9.675 3.55 9.875 3.275 10.25C3 10.625 2.9 11 3.05 11.125C3.225 11.225 3.575 11 3.85 10.65ZM7.225 11.6C7.225 11.425 6.85 11.25 6.375 11.225C5.9 11.2 5.5 11.35 5.5 11.525C5.5 11.7 5.875 11.875 6.35 11.9C6.825 11.925 7.225 11.8 7.225 11.6Z" fill="#E8E1D6"/>
<path d="M3.35 3.425H9.7V5.9H3.35V3.425Z" fill="#3F4237"/>
<path d="M9.55 5.275C10.175 6.45 8.95 7.85 6.525 7.85C4.125 7.85 2.9 6.45 3.5 5.275C3.95 4.425 5.25 3.9 6.525 3.9C7.8 3.925 9.1 4.45 9.55 5.275Z" fill="#3F4237"/>
<path d="M9.55 2.85C10.175 4.05 8.95 5.425 6.525 5.425C4.125 5.425 2.9 4.025 3.5 2.85C3.95 2.025 5.25 1.5 6.525 1.5C7.8 1.5 9.1 2.025 9.55 2.85Z" fill="#8CC63E"/>
<path d="M9.275 2.85C9.775 3.9 8.625 5.1 6.525 5.1C4.425 5.1 3.275 3.9 3.775 2.85C4.15 2.075 5.325 1.575 6.525 1.575C7.725 1.575 8.9 2.075 9.275 2.85Z" fill="#FFEEE2"/>
<path d="M7.9 2.975C8.025 3.45 7.4 3.925 6.525 3.925C5.65 3.925 5.05 3.475 5.15 2.975C5.25 2.55 5.85 2.275 6.525 2.275C7.2 2.275 7.8 2.55 7.9 2.975Z" fill="#FF5555"/>
<path d="M9.15 5.35H15.5V7.825H9.15V5.35Z" fill="#3F4237"/>
<path d="M15.35 7.2C15.975 8.375 14.75 9.775 12.325 9.775C9.925 9.775 8.7 8.375 9.3 7.2C9.75 6.35 11.05 5.825 12.325 5.825C13.6 5.825 14.9 6.375 15.35 7.2Z" fill="#3F4237"/>
<path d="M15.35 4.775C15.975 5.95 14.75 7.35 12.325 7.35C9.925 7.35 8.7 5.95 9.3 4.775C9.75 3.925 11.05 3.4 12.325 3.4C13.6 3.4 14.9 3.95 15.35 4.775Z" fill="#8CC63E"/>
<path d="M15.075 4.775C15.575 5.825 14.425 7.025 12.325 7.025C10.225 7.025 9.075 5.825 9.575 4.775C9.95 4 11.125 3.5 12.325 3.5C13.5 3.525 14.7 4 15.075 4.775Z" fill="#FFEEE2"/>
<path d="M13.7 4.9C13.825 5.375 13.2 5.85 12.325 5.85C11.45 5.85 10.85 5.4 10.95 4.9C11.05 4.475 11.65 4.2 12.325 4.2C13 4.2 13.6 4.475 13.7 4.9Z" fill="#FF5555"/>
<path d="M0.500003 7.8C0.475003 8.35 0.875003 9.075 1.45 9.425C2.025 9.775 10.55 13.05 11 12.575C11.425 12.1 9.325 9.4 8.15 8.9C5 7.55 0.500003 7.8 0.500003 7.8Z" fill="#EC6430"/>
<path d="M10.875 11.6C10.85 11.875 10.9 12.65 11 12.6C11.55 12.2 13.075 10.25 12.375 8.675L10.875 11.6Z" fill="#E8491F"/>
<path d="M0.5 7.8C0.5 7.8 1.9 6.05 2.425 5.85C3.9 5.325 3.95 5.35 5.05 5.6C6.175 5.85 11.2 7.1 12.35 8.65C12.65 9.05 11.175 11.7 10.85 11.9C10.55 12.05 8.8 11.55 6.45 10.025C3.775 8.3 1.075 7.95 0.5 7.8Z" fill="#F3813B"/>
<path d="M9.575 11.375C9.45 11.3 9.3 11.225 9.175 11.15C9.1 10.325 9.4 9.375 9.35 8.55C9.175 9.3 8.75 10.05 8.55 10.8C8.5 10.775 8.425 10.725 8.375 10.7C7.9 10.4 7.4 10.125 6.925 9.825C7.25 8.85 7.45 7.75 6.975 6.8C7.2 7.75 6.825 8.675 6.35 9.5C6.225 9.425 6.1 9.35 5.95 9.275C5.525 9.05 5.075 8.85 4.625 8.65C4.425 7.8 5.175 6.75 4.4 6.025C4.85 6.75 4.225 7.6 4.025 8.4C3.8 8.325 3.55 8.225 3.325 8.175C2.4 7.925 1.45 7.75 0.5 7.8C1.4 8.05 2.275 8.375 3.125 8.725C3.975 9.1 4.775 9.5 5.6 9.925C6.425 10.35 7.25 10.8 8.1 11.175C8.525 11.375 8.975 11.55 9.425 11.675C9.875 11.8 10.375 11.9 10.85 11.85C10.4 11.775 9.975 11.6 9.575 11.375Z" fill="#F4A24E"/>
</svg>
