<svg width="18" height="18" viewBox="0 0 18 18" fill="none" xmlns="http://www.w3.org/2000/svg">
<path d="M9 17.5C1.521 17.5 0.5 10.5 0.5 8.5H17.5C17.5 9.5 16.521 17.5 9 17.5Z" fill="#CCD6DD"/>
<path d="M17.5 8.528C17.5 11.136 13.6945 13.25 9 13.25C4.3055 13.25 0.5 11.1355 0.5 8.528C0.5 5.9205 4.3055 4.306 9 4.306C13.6945 4.3055 17.5 5.92 17.5 8.528Z" fill="#66757F"/>
<path d="M1.354 9.4375C0.950002 8.857 0.187502 7.6875 1 5.9375C1.354 5.021 2.09 4.424 2.1875 4.7085C2.4165 5.375 2.875 5.9585 3.5625 5.896C3.5535 6.1325 3.228 3.7415 4.375 3.104C4.9375 2.7915 5.5415 3.2915 6.229 4.3955C7.33 6.164 10.1345 5.3375 10.9215 4.8745C11.7185 4.4055 12.4165 4.0985 12.208 2.8435C12.162 2.568 12.5795 2.329 13.0055 2.557C13.721 2.94 14.7545 3.8925 14.937 4.9375C15.4475 5.073 15.83 4.856 16.1245 4.2605C16.2705 3.9655 16.7705 3.896 16.9845 4.281C17.3615 4.959 17.9805 7.0445 17.104 8.8335C16.104 10.875 14.583 11.9585 11.1665 12.396C7.75 12.8335 3.354 12.3125 1.354 9.4375Z" fill="#77B255"/>
<path d="M9.7085 5.073C9.7085 6.126 8.8035 6.979 7.6875 6.979C6.5715 6.979 5.6665 6.1255 5.6665 5.073C5.6665 4.0205 6.5715 3.167 7.6875 3.167C8.8035 3.1665 9.7085 4.0205 9.7085 5.073Z" fill="#5C913B"/>
<path d="M9.2085 5.073C9.2085 5.8655 8.5275 6.5075 7.6875 6.5075C6.8475 6.5075 6.1665 5.865 6.1665 5.073C6.1665 4.281 6.8475 3.638 7.6875 3.638C8.5275 3.6385 9.2085 4.281 9.2085 5.073Z" fill="#C6E5B3"/>
<path d="M4.0835 8.25C4.71642 8.25 5.2295 7.80228 5.2295 7.25C5.2295 6.69772 4.71642 6.25 4.0835 6.25C3.45058 6.25 2.9375 6.69772 2.9375 7.25C2.9375 7.80228 3.45058 8.25 4.0835 8.25Z" fill="#292F33"/>
<path d="M8.762 7.591C9.3955 8.785 7.71 8.0665 6.455 8.733C5.1995 9.3995 4.8505 11.1975 4.2165 10.0035C3.5825 8.8095 4.0865 7.3015 5.3415 6.635C6.597 5.969 8.1285 6.397 8.762 7.591Z" fill="#DD2E44"/>
<path d="M12.0835 7.25C12.7164 7.25 13.2295 6.80228 13.2295 6.25C13.2295 5.69772 12.7164 5.25 12.0835 5.25C11.4506 5.25 10.9375 5.69772 10.9375 6.25C10.9375 6.80228 11.4506 7.25 12.0835 7.25Z" fill="#292F33"/>
<path d="M14.5585 10.0645C13.7765 10.8045 13.9695 9.3585 13.1915 8.5365C12.4125 7.7145 10.9585 7.829 11.74 7.0885C12.5215 6.348 13.787 6.414 14.565 7.2355C15.343 8.057 15.3405 9.324 14.5585 10.0645Z" fill="#9266CC"/>
<path d="M14.0585 10.5645C13.2765 11.3045 13.4695 9.8585 12.6915 9.036C11.9125 8.2145 10.4585 8.3285 11.24 7.588C12.0215 6.8475 13.287 6.9135 14.065 7.735C14.843 8.5565 14.8405 9.824 14.0585 10.5645Z" fill="#E1E8ED"/>
<path d="M12.0065 9.964C12.397 10.995 11.1075 10.2415 10.0235 10.6525C8.9405 11.063 8.4735 12.4815 8.083 11.451C7.6925 10.4205 8.2545 9.252 9.3375 8.8415C10.4205 8.431 11.6155 8.934 12.0065 9.964Z" fill="#DD2E44"/>
<path d="M4.479 9.542C4.3955 8.771 5.8955 5.333 8.5625 8.3335C7.9375 8.4375 6.4165 8.4375 5.729 9.396C5.0415 10.3545 4.4165 9.5 4.479 9.542Z" fill="#EA596E"/>
<path d="M2.4585 9.8545C2.0945 9.369 3.3335 8.25 4.271 9.208C4.667 8.729 6.625 7.771 7.3545 9.8545C7.688 9.4795 10.417 9.396 10.4585 11.7085C10.479 12.021 7.311 11.9615 5.6875 11.5835C4.7915 11.375 3.146 10.771 2.4585 9.8545ZM13 11.229C12.4165 11.3865 13.3965 8.6665 15.2295 9.125C15.292 8.625 15.6875 6.979 16.8335 7.271C16.875 7.75 16.854 10.187 13 11.229Z" fill="#A6D388"/>
</svg>
