<svg width="16" height="16" viewBox="0 0 16 16" fill="none" xmlns="http://www.w3.org/2000/svg">
<path d="M13.9065 8.3875C13.4565 8.8425 13.1765 9.4425 13.1215 10.0775C13.0115 11.3475 12.4565 12.5425 11.5565 13.4425C9.4765 15.5175 6.0965 15.5175 4.0215 13.4425L2.4465 11.8675L3.2465 11.0725C3.0515 9.4975 3.5565 7.8475 4.7615 6.6425C5.6615 5.7425 6.8565 5.1875 8.1265 5.0775C8.16577 5.07409 8.20494 5.06976 8.244 5.0645C8.15013 4.75785 8.14159 4.43141 8.21929 4.12027C8.29699 3.80912 8.45799 3.52502 8.685 3.2985C9.00246 2.98188 9.42797 2.79712 9.87605 2.78135C10.3241 2.76559 10.7616 2.91998 11.1005 3.2135L12.4215 1.8925L13.9965 3.4675C15.3265 4.7975 15.3265 6.9675 13.9965 8.2975L13.9065 8.3875Z" fill="#FBB8AB"/>
<path fill-rule="evenodd" clip-rule="evenodd" d="M12.4365 6.9175C11.9865 7.3725 11.7065 7.9725 11.6515 8.6075C11.542 9.87882 10.99 11.0714 10.0915 11.9775C8.0115 14.0525 4.6315 14.0575 2.5565 11.9775C0.481502 9.8975 0.481502 6.5175 2.5565 4.4425C3.4565 3.5425 4.6515 2.9875 5.9165 2.8725C6.55436 2.81672 7.15242 2.53892 7.6065 2.0875L7.6965 1.9975C9.0265 0.6675 11.1965 0.6675 12.5265 1.9975C13.8565 3.3275 13.8565 5.4975 12.5265 6.8275L12.4365 6.9175ZM9.3315 3.9425C8.9965 4.2775 8.9965 4.8175 9.3315 5.1525C9.6665 5.4875 10.2115 5.4875 10.5465 5.1575C10.8815 4.8225 10.8815 4.2775 10.5465 3.9425C10.3853 3.78159 10.1668 3.69122 9.939 3.69122C9.71122 3.69122 9.49273 3.78159 9.3315 3.9425Z" fill="#F4F4F4"/>
<path d="M3.838 4.397C3.51 4.657 3.5595 5.186 3.951 5.3675L6.411 6.5325C6.41367 6.53283 6.41633 6.53367 6.419 6.535C6.42167 6.53633 6.424 6.53717 6.426 6.5375C6.911 6.7625 7.481 6.6775 7.861 6.2975L8.231 5.9275C8.466 5.6925 8.556 5.3475 8.461 5.0325C8.37934 4.76147 8.37247 4.4734 8.44112 4.19878C8.50978 3.92416 8.6514 3.67322 8.851 3.4725C9.00159 3.32108 9.18176 3.20229 9.38027 3.12355C9.57878 3.04482 9.79138 3.00781 10.0048 3.01485C10.2183 3.02189 10.428 3.07281 10.6209 3.16445C10.8138 3.25609 10.9857 3.38649 11.126 3.5475C11.641 4.1275 11.641 5.0175 11.126 5.6025C10.701 6.0825 10.061 6.2375 9.501 6.0675C9.34475 6.01919 9.17824 6.01462 9.01957 6.05429C8.8609 6.09396 8.71614 6.17634 8.601 6.2925L8.236 6.6575C7.856 7.0375 7.771 7.6125 8.001 8.0975C8.001 8.09983 8.002 8.1015 8.004 8.1025C8.00533 8.1035 8.00617 8.10517 8.0065 8.1075L9.1765 10.5625C9.21743 10.6491 9.27938 10.7241 9.3567 10.7806C9.43403 10.8371 9.52427 10.8734 9.6192 10.8861C9.71414 10.8989 9.81074 10.8876 9.90022 10.8535C9.9897 10.8193 10.0692 10.7633 10.1315 10.6905C10.5537 10.0472 10.8097 9.30911 10.8765 8.5425C10.9465 7.7225 11.3065 6.9525 11.8865 6.3675L11.9765 6.2775C12.2261 6.02842 12.4231 5.73168 12.5557 5.40493C12.6883 5.07818 12.7539 4.7281 12.7485 4.3755C12.7434 4.00089 12.6582 3.63172 12.4985 3.29279C12.3389 2.95385 12.1086 2.65302 11.823 2.4105C10.781 1.5245 9.209 1.6015 8.228 2.5755L8.1615 2.6425C7.57805 3.22478 6.80781 3.58246 5.9865 3.6525C5.21976 3.71904 4.48152 3.97486 3.838 4.397Z" fill="#F8312F"/>
<path d="M2.474 5.783C2.633 5.548 2.9385 5.4655 3.196 5.5825L6.201 6.9925C6.786 7.2675 7.261 7.7425 7.541 8.3225L8.966 11.3125C9.091 11.5775 8.996 11.8925 8.751 12.0475C8.28929 12.3418 7.77774 12.5494 7.2415 12.66C6.5037 12.8126 5.73953 12.7794 5.01773 12.5634C4.29594 12.3474 3.63917 11.9553 3.1065 11.4225C1.5755 9.892 1.365 7.5395 2.474 5.7825" fill="#F8312F"/>
</svg>
