<svg width="18" height="18" viewBox="0 0 18 18" fill="none" xmlns="http://www.w3.org/2000/svg">
<g clip-path="url(#clip0_1_32)">
<path d="M2.229 3.7145C-0.036 3.8745 -0.1585 0.959002 4.1295 1.3455C8.4175 1.732 13.1115 3.0455 14.2385 2.24C15.133 1.6005 14.9465 0.436002 14.7215 0.201002C14.4965 -0.0334983 14.1555 0.178502 14.328 0.542002C14.5005 0.905502 14.297 1.881 13.197 1.9795C12.0975 2.078 7.997 1.3035 5.4095 0.939002C2.767 0.568002 0.6435 0.752002 0.182 2.23C-0.2775 3.7035 1.154 4.1665 1.911 4.2385C2.668 4.31 2.229 3.7145 2.229 3.7145Z" fill="#BE1931"/>
<path d="M3.0415 3.354C0.770498 3.354 0.853998 0.4375 5.104 1.125C9.354 1.8125 13.9435 3.4535 15.125 2.729C16.0625 2.154 15.958 0.979 15.75 0.729C15.542 0.479 15.1875 0.6665 15.3335 1.0415C15.4795 1.4165 15.2085 2.375 14.1045 2.3955C13.0005 2.417 8.965 1.3555 6.4095 0.81C3.8 0.253 1.6685 0.2875 1.104 1.729C0.541498 3.1665 1.9375 3.729 2.6875 3.854C3.4375 3.979 3.0415 3.354 3.0415 3.354Z" fill="#DD2E44"/>
<path d="M16.689 6.623C15.4185 4.659 13.3065 3.3085 11.0615 2.881C7.403 2.1845 2.406 2.469 1 4.5C0.719003 4.906 0.761003 6.8355 2.5 7.5C3.3815 7.837 5.771 7.419 7.4205 7.269L7.3105 8.1375C7.29489 8.26851 7.3317 8.40038 7.4129 8.50437C7.49409 8.60836 7.6131 8.67605 7.74399 8.69267C7.87487 8.7093 8.00703 8.67352 8.11164 8.59313C8.21626 8.51274 8.28486 8.39425 8.3025 8.2635L8.4345 7.2225C8.8325 7.2325 9.2205 7.2725 9.6025 7.3385L9.303 8.318C9.2676 8.44377 9.28284 8.5784 9.34545 8.69308C9.40806 8.80776 9.51307 8.89337 9.63801 8.9316C9.76295 8.96983 9.89789 8.95763 10.014 8.89762C10.13 8.8376 10.218 8.73455 10.259 8.6105L10.578 7.5665C10.949 7.678 11.3175 7.8165 11.6875 7.9795L11.166 8.827C11.0995 8.93982 11.08 9.0742 11.1115 9.20128C11.1431 9.32836 11.2232 9.43799 11.3348 9.50662C11.4463 9.57524 11.5803 9.59739 11.7079 9.56829C11.8356 9.53919 11.9467 9.46117 12.0175 9.351L12.5875 8.424C12.6315 8.4475 12.6745 8.4685 12.7185 8.493C14.1225 9.272 14.9815 11.4615 14.9455 12.2705C14.9275 12.6765 15.03 12.9735 15.2495 13.156C15.6455 13.482 16.2885 13.3275 16.7585 13.2145C16.9175 13.176 17.082 13.1365 17.158 13.138L17.309 12.642L17.358 12.4995C18.3485 9.6135 17.541 7.939 16.689 6.623Z" fill="#DD2E44"/>
<path d="M11.0965 4.2515C10.792 4.8235 11.164 4.7195 11.609 4.2845C11.907 3.993 12.3795 3.6755 12.8795 3.449C12.5995 3.32771 12.3134 3.22073 12.0225 3.1285C11.63 3.5065 11.2615 3.9425 11.0965 4.2515ZM14.087 5.7995C14.7225 5.4845 15.5005 5.692 16.265 6.04C15.9229 5.60476 15.5383 5.20463 15.117 4.8455C14.7585 4.8675 14.4015 4.9755 14.1 5.197C13.5975 5.5655 12.9925 6.341 14.087 5.7995ZM16.0185 7.7535C15.4205 7.928 14.5865 8.4495 15.7995 8.3155C16.505 8.2375 17.165 8.6995 17.7645 9.289C17.6987 8.80344 17.5672 8.32908 17.3735 7.879C16.9575 7.694 16.478 7.6195 16.0185 7.7535ZM17.2385 12.07C17.0375 11.9675 16.2365 12.9555 15.3955 11.701C15.394 11.6985 15.3915 11.6985 15.39 11.696C15.352 11.11 15.0775 8.5855 12.446 7.2005C12.1501 7.04476 11.8431 6.91107 11.5275 6.8005C11.0674 6.64141 10.5945 6.52214 10.114 6.444C9.83461 6.3958 9.55337 6.35894 9.271 6.3335C9.2195 6.329 9.1665 6.328 9.1145 6.324C8.61091 6.29031 8.10565 6.28981 7.602 6.3225C7.269 6.3425 6.936 6.3705 6.603 6.4065C4.618 6.618 2.681 7.0275 1.3575 6.6325C1.6105 6.9855 1.9775 7.3005 2.5 7.5C3.2455 7.7845 5.0685 7.53 6.611 7.354L6.612 7.468C6.61319 7.60061 6.66701 7.72731 6.76163 7.82024C6.85624 7.91316 6.98389 7.96469 7.1165 7.9635C7.24911 7.96231 7.37581 7.90848 7.46873 7.81387C7.56166 7.71926 7.61319 7.59161 7.612 7.459L7.61 7.2535C7.87412 7.22934 8.13928 7.21832 8.4045 7.2205C8.5695 7.224 8.7325 7.2345 8.8945 7.248L8.846 7.451C8.8308 7.51489 8.82833 7.58114 8.83873 7.64599C8.84914 7.71083 8.87222 7.77299 8.90664 7.82891C8.94107 7.88483 8.98618 7.93343 9.03938 7.97192C9.09259 8.01041 9.15286 8.03805 9.21675 8.05325C9.34578 8.08395 9.48171 8.06213 9.59466 7.99261C9.65058 7.95818 9.69918 7.91307 9.73767 7.85986C9.77616 7.80666 9.8038 7.74639 9.819 7.6825L9.8875 7.394C10.2808 7.476 10.6712 7.58717 11.0585 7.7275L10.926 7.99C10.8665 8.10842 10.8563 8.24557 10.8976 8.37149C10.9389 8.4974 11.0284 8.60185 11.1465 8.662C11.265 8.72165 11.4022 8.73194 11.5283 8.69061C11.6543 8.64929 11.7588 8.55972 11.819 8.4415L11.9825 8.1175C12.2265 8.2335 12.471 8.356 12.7185 8.4935C14.1145 9.2685 14.9715 11.437 14.945 12.2565C14.9337 12.3204 14.9287 12.3852 14.93 12.45C14.935 12.704 14.874 12.997 14.7475 13.3215C14.492 13.9795 13.9785 14.7215 13.438 15.211C13.23 15.4005 13.079 15.6115 12.9905 15.838C12.8305 16.2525 12.907 16.6805 13.183 16.9035C13.237 16.9468 13.2947 16.9797 13.356 17.002C15.0225 15.4925 14.3915 16.3185 14.805 17.5605C14.971 17.8655 15.216 17.939 15.3375 17.955C15.6905 18.0005 16.039 17.756 16.227 17.3305L16.2515 17.2715C16.5335 16.5455 17.339 12.943 17.4155 12.4135C17.4258 12.3449 17.4143 12.2748 17.3825 12.2131C17.3508 12.1515 17.3004 12.1014 17.2385 12.07Z" fill="#BE1931"/>
<path d="M13.357 17.0015C13.552 17.075 13.7765 17.0475 13.979 16.9145C14.248 16.738 14.4255 16.712 14.4955 16.743C14.569 16.775 14.6325 16.918 14.665 17.124C14.6945 17.3075 14.745 17.4485 14.806 17.56C14.392 16.318 15.7795 14.1945 13.357 17.0015Z" fill="#292F33"/>
<path d="M3.5 5C3.77614 5 4 4.77614 4 4.5C4 4.22386 3.77614 4 3.5 4C3.22386 4 3 4.22386 3 4.5C3 4.77614 3.22386 5 3.5 5Z" fill="#292F33"/>
</g>
<defs>
<clipPath id="clip0_1_32">
<rect width="18" height="18" fill="white"/>
</clipPath>
</defs>
</svg>
