<svg width="24" height="24" viewBox="0 0 24 24" fill="none" xmlns="http://www.w3.org/2000/svg">
<g clip-path="url(#clip0_1_2)">
<path d="M-0.203995 12.8757C-0.203995 17.4707 2.8215 21.1956 7.35931 21.1956C7.7233 21.1956 15.0309 21.219 15.3013 21.219C21.8723 21.219 23.9991 17.1344 23.9991 12.8757C23.9991 8.28067 15.1774 3.3884 8.49463 3.3884C1.81185 3.3884 -0.203995 8.28067 -0.203995 12.8757Z" fill="#8E6134"/>
<path d="M21.3411 2.00089C22.7043 2.00782 21.8697 3.07294 22.401 3.61114C22.9331 4.14846 24.0069 3.32601 24 4.69012C23.9913 6.2943 21.5881 5.47878 20.5125 6.54217C19.4379 7.60555 18.3736 6.53003 19.4492 5.46665C20.5247 4.40326 19.736 1.99222 21.3411 2.00089Z" fill="#E2E4E5"/>
<path d="M21.3411 2.00089C19.736 1.99222 20.5247 4.40239 19.4492 5.46578C18.9309 5.97884 18.9118 6.4919 19.1493 6.76923L22.3603 3.55914C21.9217 3.00794 22.6636 2.00782 21.3411 2.00089Z" fill="white"/>
<path d="M7.92784 9.41253C5.23861 12.0714 5.52981 15.5927 7.87931 17.969C10.2288 20.3454 14.2848 20.1443 16.4367 18.0176C19.0592 15.4245 17.5486 10.5366 20.7751 7.34556C22.1193 6.01697 19.9926 3.86507 18.6484 5.19452C15.4209 8.38554 10.6171 6.7545 7.92784 9.41253Z" fill="#A97A45"/>
<path d="M18.6484 5.19451C15.4218 8.38467 10.6171 6.75363 7.92785 9.41253C5.22562 12.0844 5.53241 15.6273 7.91398 18.0046L20.6798 5.23871C20.146 4.72825 19.3044 4.54539 18.6484 5.19451Z" fill="#D4A263"/>
</g>
<defs>
<clipPath id="clip0_1_2">
<rect width="24" height="24" fill="white"/>
</clipPath>
</defs>
</svg>
